# xmcd
#
# Track frame offsets: 
#        183
#        18433
#        36661
#        55707
#        70699
#        93972
#        116633
#        135718
#        161097
#        183946
#        203523
#        228667
#        254805
#        277527
#        296466
#        317358
#
# Disc length: 4526 seconds
#
# Revision: 1
# Processed by: cddbd v1.5.2PL0 Copyright (c) Steve Scherf et al.
# Submitted via: ExactAudioCopy v1.0b3
#
DISCID=dd11ac10
DTITLE=Africando - el mejor
DYEAR=2000
DGENRE=Salsa
TTITLE0=Yay Boy
TTITLE1=Lakh Bi
TTITLE2=Am Saaxul
TTITLE3=Sabador
TTITLE4=Gombo
TTITLE5=Dalaka
TTITLE6=Trovador
TTITLE7=Xale Bile
TTITLE8=Aminata
TTITLE9=Sama Rew
TTITLE10=Diaraf
TTITLE11=Doley Mbolo
TTITLE12=Ayo Nene
TTITLE13=Tierra Tradicional
TTITLE14=Grog Mwin
TTITLE15=La Vie en Rose
EXTD=YEAR: 2000
EXTT0=
EXTT1=
EXTT2=
EXTT3=
EXTT4=
EXTT5=
EXTT6=
EXTT7=
EXTT8=
EXTT9=
EXTT10=
EXTT11=
EXTT12=
EXTT13=
EXTT14=
EXTT15=
PLAYORDER=
